<svg 
 xmlns="http://www.w3.org/2000/svg"
 xmlns:xlink="http://www.w3.org/1999/xlink"
 width="32px" height="47px">
<path fill-rule="evenodd"  fill="rgb(53, 53, 53)"
 d="M16.000,47.000 C7.178,47.000 -0.000,39.822 -0.000,31.000 L-0.000,16.000 C-0.000,7.177 7.178,-0.000 16.000,-0.000 C24.822,-0.000 32.000,7.177 32.000,16.000 L32.000,31.000 C32.000,39.822 24.822,47.000 16.000,47.000 ZM30.000,16.000 C30.000,8.280 23.720,2.000 16.000,2.000 C8.280,2.000 2.000,8.280 2.000,16.000 L2.000,31.000 C2.000,38.719 8.280,45.000 16.000,45.000 C23.720,45.000 30.000,38.719 30.000,31.000 L30.000,16.000 ZM16.000,15.667 C15.448,15.667 15.000,15.219 15.000,14.667 L15.000,8.501 C15.000,7.948 15.448,7.501 16.000,7.501 C16.552,7.501 17.000,7.948 17.000,8.501 L17.000,14.667 C17.000,15.219 16.552,15.667 16.000,15.667 Z"/>
</svg>